<?xml version="1.0" encoding="utf-8"?>
<!-- Generator: Adobe Illustrator 19.2.1, SVG Export Plug-In . SVG Version: 6.00 Build 0)  -->
<svg version="1.1" id="Layer_1" xmlns="http://www.w3.org/2000/svg" xmlns:xlink="http://www.w3.org/1999/xlink" x="0px" y="0px"
	 viewBox="0 0 2000 453.3" style="enable-background:new 0 0 2000 453.3;" xml:space="preserve">
<style type="text/css">
	.st0{fill:#FFFFFF;}
	.st1{font-family:'ProximaNova-Extrabld';}
	.st2{font-size:350px;}
	.st3{letter-spacing:21;}
	.st4{letter-spacing:28;}
	.st5{letter-spacing:14;}
	.st6{letter-spacing:20;}
	.st7{fill-rule:evenodd;clip-rule:evenodd;fill:#FFFFFF;}
</style>
<text id="XMLID_1_" transform="matrix(1 0 0 1 423.6269 337.665)"><tspan x="0" y="0" class="st0 st1 st2 st3">H</tspan><tspan x="280.3" y="0" class="st0 st1 st2 st4">E</tspan><tspan x="514.5" y="0" class="st0 st1 st2 st5">A</tspan><tspan x="772.4" y="0" class="st0 st1 st2 st4">R</tspan><tspan x="1031.8" y="0" class="st0 st1 st2 st6">YE</tspan></text>
<g>
	<g>
		
			<ellipse transform="matrix(0.4097 -0.9122 0.9122 0.4097 -35.2359 235.856)" class="st7" cx="164.6" cy="145.2" rx="23.1" ry="23.1"/>
		<g>
			<path class="st7" d="M215.4,152.6c0.4-4.3-0.3-9.4-1.2-13.6c-1.1-4.8-2.6-9.1-4.3-12.1l-0.3-0.4c0.5-0.3,1.1-0.6,1.7-0.9
				c0,0,30.9-6.4,38.5-14.5c0,0,9.2-8,10.5-17.1c0,0,2.2-12,11-7.5c15.8,7.9,25,45.6,21.5,61.8c0,0-0.6,11.6-13.8,5.4
				c0,0-8.5-9.1-17-10.3c0,0-14.4-1.2-21.5,2.5C231.9,150.5,224.2,152.1,215.4,152.6L215.4,152.6z M226.6,124.7
				c24.3-2.9,36.5-19.1,38.3-26.1c0.2-0.8,0.4-1.6,0.6-2.2c2-6.8,3.1-4.4,6.5-0.7c12,13.1,16,31.6,18.5,48.9
				c-0.6-23.8-5.4-37.2-18.2-52.4c-3.7-4.4-6.8-6.3-9.7,5C257.1,118.8,226.6,124.7,226.6,124.7L226.6,124.7z M213.3,152.1l0-0.4
				c0.2-3.2-0.2-7.5-1.2-12.2c-1-4.7-2.5-8.7-4.1-11.5l-0.2-0.3c-5.6,4.3-3.7,9.8-3.7,9.8C204.9,147.5,210,150.9,213.3,152.1z"/>
			<path class="st7" d="M276.2,81.2c0,0,33.1,22.9,22.4,75.4C298.7,156.6,320.5,102.9,276.2,81.2z"/>
			<path class="st7" d="M295.9,85.8c0,0,25,17.3,16.9,56.9C312.9,142.7,329.4,102.1,295.9,85.8z"/>
			<path class="st7" d="M315.8,93.2c0,0,16.2,11.2,11,36.9C326.8,130.1,337.5,103.8,315.8,93.2z"/>
			<path class="st7" d="M231.2,148.3c0,0,2.2,4.9,4.8,8.7c5.6,8.1,22.5,5.1,29.1-0.2c3.4-2.7,4.5-10.8,5.7-15.1l-16.5-3.1l-23,7.2
				L231.2,148.3L231.2,148.3z M239.4,149.7l25.1-4.4c0,0,1.2,7.4-5.2,10.1c-5.6,1.9-15.7,4-18.6-2.7
				C240.3,151.9,239.9,150.9,239.4,149.7z"/>
		</g>
		<path class="st7" d="M214.3,271.9c3,14.1,1.8,10.4,3.4,24.9c1.2,11-0.1,12.8-4.4,22.9l-11.9,29.2l2.3-37.6l-11.1-9.6
			c0.2-1.6-0.2-2.8-0.5-5.6l-2.6-29.6c-2.3-18.5,0-7.3-6.9-25.5c-3.3-8.8-5.9-12.6-9.9-23.2c-2.9-7.9-11.2-25.3-10.8-32.2
			c0.9-12.8,10.5-19.9,25-18.9l19,3.3c20.7,3.3,17,4.9,23.9-0.6l14.5-11.3l12.3-0.2l8.7-5.1l-0.7,4.6l-19.3,24.3
			c-11.9,15-10.2,14.4-38.3,9.6l-25.8-6.4l26.6,8.6l20.1,49.3c0.2,0.4,0.4,0.7,0.7,1.1l10.8,18.4l-14.9,24.5
			c-1.4-2.2-2.8-4.3-4.3-6.6C218.6,278,215.9,273.2,214.3,271.9z"/>
		<path class="st7" d="M192.5,300.7l-2.2,61.3l23.4,1.3l3.7-52c0.4-4.5,1.2-8.9,0-15.9l-3.2-23.4L192.5,300.7z"/>
		<path class="st7" d="M209.9,267.1l5,5.4l18.6,28.7c0,0,1.4,1.9,0.8,6.1l-0.8,56.6l23.9,0.7l1.9-51.3c0.7-17.5,2.5-12.6-7.1-28.8
			l-24.5-41.6L209.9,267.1z"/>
		<path class="st7" d="M222.1,85.5c7.5,0.1,14.8,0.9,21.9,2.1l-0.2,11.8c-7.1-1.3-14.4-2.1-21.9-2.3
			c-72.7-1.4-132.8,56.4-134.2,129.1S144.1,359,216.8,360.4c72.7,1.4,132.8-56.4,134.2-129.1c0.6-30-9-57.9-25.5-80.4l11.5-4
			c16.7,23.9,26.2,53.2,25.6,84.6c-1.5,79.2-66.9,142.1-146.1,140.6C137.5,370.6,74.5,305.2,76.1,226
			C77.6,146.9,143,83.9,222.1,85.5z"/>
	</g>
</g>
</svg>
